<svg width="229" height="65" fill="none" xmlns="http://www.w3.org/2000/svg"><g clip-path="url(#clip0)"><path transform="translate(-88 -758)" fill="#fff" d="M0 0H1440V9136H0z"/><path d="M85.937 40.498h3.385l-.575-2.645V22.137h-3.233v7.174a5.055 5.055 0 0 0-3.899-1.794c-3.233 0-5.742 2.706-5.742 6.627 0 3.952 2.509 6.627 5.742 6.627 1.602 0 2.992-.699 3.96-1.885l.362 1.612zm63.948-9.454a3 3 0 0 1 1.814.577l1.541-3.465c-.725-.456-1.541-.639-2.357-.639-1.451 0-2.69.67-3.446 1.916l-.332-1.611h-3.324l.544 2.492v10.214h3.233v-8.116c.423-.851 1.239-1.368 2.327-1.368zm9.46 6.323c-1.874 0-3.264-1.247-3.264-3.192 0-1.976 1.39-3.192 3.264-3.192 1.904 0 3.264 1.216 3.264 3.192 0 1.915-1.36 3.192-3.264 3.192zm-80.329-3.223c0-1.976 1.39-3.191 3.264-3.191 1.904 0 3.264 1.215 3.264 3.191 0 1.946-1.36 3.192-3.264 3.192-1.874.03-3.264-1.246-3.264-3.192zm94.684 3.223c-1.874 0-3.264-1.247-3.264-3.192 0-1.976 1.39-3.192 3.264-3.192 1.904 0 3.264 1.216 3.264 3.192-.031 1.915-1.391 3.192-3.264 3.192zM97.18 30.77c1.661 0 2.75.79 3.112 2.25h-6.225c.332-1.49 1.45-2.25 3.112-2.25zm38.652 0c1.663 0 2.751.79 3.113 2.25h-6.225c.392-1.49 1.48-2.25 3.112-2.25zm-15.775 9.728h5.198l3.385-12.737h-3.536l-2.448 10.335-2.478-10.305h-3.476l3.355 12.707zm-8.311 0h3.234V27.76h-3.234v12.737zm-14.083.243a9.41 9.41 0 0 0 5.047-1.46l-1.239-2.796a7.86 7.86 0 0 1-3.778.973c-1.692 0-2.871-.669-3.415-1.915h9.127c.091-.487.151-.912.151-1.49 0-3.952-2.72-6.566-6.316-6.566-3.657 0-6.317 2.675-6.317 6.627-.03 4.043 2.63 6.627 6.74 6.627zm82.413-6.597c0-3.951-2.719-6.627-6.376-6.627-3.687 0-6.377 2.706-6.377 6.627 0 3.922 2.72 6.627 6.377 6.627 3.657 0 6.376-2.675 6.376-6.627zm-43.79 6.627c1.813 0 3.566-.486 5.047-1.459l-1.239-2.797a7.86 7.86 0 0 1-3.778.973c-1.692 0-2.871-.669-3.415-1.915h9.127c.09-.486.151-.912.151-1.49 0-3.951-2.72-6.566-6.316-6.566-3.657 0-6.317 2.675-6.317 6.627 0 4.074 2.63 6.627 6.74 6.627zm23.059 0c3.687 0 6.376-2.705 6.376-6.627 0-3.921-2.72-6.627-6.376-6.627-3.687 0-6.377 2.706-6.377 6.627 0 3.922 2.69 6.627 6.377 6.627zm-53.734-.273h3.234V22.137h-3.234v18.36zm7.767-14.47c1.118 0 2.025-.912 2.025-2.067 0-1.155-.877-2.067-2.025-2.067a2.044 2.044 0 0 0-2.055 2.067c0 1.155.876 2.067 2.055 2.067zM57.801 10.555l-1.844 17.631-3.143-14.865-9.912 2.098 3.112 14.865-14.264 3.04 2.539 11.855 25.114 5.38 5.742-12.919 2.72-26.02L57.8 10.554zm-7.948 25.596c-.514.486-1.179.425-1.935.182-.725-.243-1.027-1.094-.785-2.189.211-.79 1.148-.912 1.662-.912.181 0 .362.03.544.122.332.152.907.486 1.027.973.182.73 0 1.337-.513 1.824zm7.283.79c-.393.669-1.36.76-2.357.274-.665-.335-.665-1.125-.575-1.642a1.44 1.44 0 0 1 .333-.76c.242-.304.635-.7 1.058-.7.755-.03 1.36.305 1.722.913.363.608.182 1.277-.181 1.915z" fill="#060606"/></g><defs><clipPath id="clip0"><path fill="#fff" transform="translate(-88 -758)" d="M0 0H1440V9136H0z"/></clipPath></defs></svg>