<svg width="250" height="92" viewBox="0 0 250 92" fill="none" xmlns="http://www.w3.org/2000/svg">
<path fill-rule="evenodd" clip-rule="evenodd" d="M62.394 51.8872V51.8097C62.394 44.1265 68.3662 37.6195 76.7696 37.6195C80.9509 37.6195 83.7376 38.5985 86.2868 40.4023C86.595 40.6276 86.8458 40.9227 87.0189 41.2631C87.1919 41.6035 87.2823 41.9799 87.2827 42.3618C87.2827 43.6562 86.2079 44.7541 84.8531 44.7541C84.216 44.7541 83.7384 44.4794 83.3397 44.204C81.5481 42.9112 79.597 42.048 76.5702 42.048C71.4337 42.048 67.5314 46.4789 67.5314 51.7307V51.8097C67.5314 57.4544 71.3141 61.609 77.0088 61.609C79.6369 61.609 82.0257 60.7865 83.7384 59.5313V54.3969H78.2431C77.0478 54.3969 76.0536 53.4961 76.0536 52.32C76.0536 51.1438 77.0478 50.2023 78.2431 50.2023H86.0086C87.4015 50.2023 88.4771 51.2611 88.4771 52.6338V59.9633C88.4771 61.3351 87.9198 62.3157 86.7652 63.0208C84.3755 64.589 81.0307 66 76.8501 66C68.1278 65.9992 62.394 59.885 62.394 51.8872ZM92.8689 39.0696C92.8689 37.776 93.9038 36.7172 95.2569 36.7172C96.6116 36.7172 97.6864 37.776 97.6864 39.0696V63.3737C97.6864 64.7064 96.6108 65.7253 95.2569 65.7253C93.9436 65.7253 92.8689 64.7072 92.8689 63.3729V39.0688V39.0696ZM101.419 55.2984V55.2186C101.419 49.3 106.197 44.4004 112.648 44.4004C119.099 44.4004 123.838 49.2218 123.838 55.1419V55.2186C123.838 61.1003 119.06 66 112.568 66C106.157 66 101.419 61.1778 101.419 55.2984ZM119.02 55.2984V55.2186C119.02 51.5742 116.351 48.5558 112.568 48.5558C108.705 48.5558 106.236 51.535 106.236 55.1419V55.2186C106.236 58.8262 108.904 61.8438 112.648 61.8438C116.551 61.8438 119.019 58.8645 119.019 55.2984H119.02ZM135.868 65.9209H135.629C134.316 65.9209 133.438 65.0985 132.882 63.8424L125.875 48.0456C125.754 47.6926 125.595 47.3021 125.595 46.8694C125.595 45.694 126.67 44.596 127.984 44.596C129.297 44.596 129.974 45.341 130.372 46.3216L135.789 60.0407L141.284 46.2433C141.643 45.4201 142.279 44.596 143.554 44.596C144.868 44.596 145.902 45.5766 145.902 46.8694C145.902 47.3021 145.744 47.7725 145.625 48.0064L138.617 63.8432C138.056 65.0585 137.183 65.9217 135.868 65.9217V65.9209ZM147.659 55.2984V55.2186C147.659 49.3 152.438 44.4004 158.891 44.4004C165.341 44.4004 170.08 49.2218 170.08 55.1419V55.2186C170.08 61.1003 165.301 66 158.81 66C152.399 66 147.659 61.1778 147.659 55.2984ZM165.262 55.2984V55.2186C165.262 51.5742 162.593 48.5558 158.81 48.5558C154.947 48.5558 152.479 51.535 152.479 55.1419V55.2186C152.479 58.8262 155.146 61.8438 158.891 61.8438C162.792 61.8438 165.261 58.8645 165.261 55.2984H165.262Z" fill="#060606"/>
<path fill-rule="evenodd" clip-rule="evenodd" d="M178.137 25.611C172.92 25.611 168.676 29.7906 168.676 34.9254C168.676 36.8815 169.293 38.7596 170.459 40.3561L170.711 40.6996L175.637 47.5431C175.637 47.5431 176.238 48.5104 177.549 48.5104H178.725C180.037 48.5104 180.636 47.5431 180.636 47.5431L185.563 40.6996L185.812 40.3561C186.972 38.7831 187.598 36.8799 187.598 34.9254C187.598 29.7906 183.354 25.611 178.137 25.611ZM182.03 37.6758L181.768 38.0373L178.138 43.0817L174.512 38.0475L174.245 37.6813C173.655 36.8838 173.336 35.9181 173.334 34.9254C173.334 32.3186 175.49 30.1978 178.136 30.1978C180.784 30.1978 182.938 32.3186 182.938 34.9254C182.938 35.9134 182.624 36.865 182.03 37.6758ZM175.475 52.712V52.6932C175.475 51.3018 176.598 50.1491 178.114 50.1491C179.632 50.1491 180.745 51.2822 180.745 52.6744V52.6932C180.745 54.0744 179.622 55.2264 178.096 55.2264C176.591 55.2264 175.475 54.094 175.475 52.712H175.475Z" fill="#060606"/>
</svg>
