<svg width="250" height="250" viewBox="0 0 250 250" fill="none" xmlns="http://www.w3.org/2000/svg">
<path fill-rule="evenodd" clip-rule="evenodd" d="M67.4669 142.061H79.1616V122.146L55.753 115.395V107H48V142.061H59.6947V131.022H67.4669V142.061Z" fill="#060606"/>
<path fill-rule="evenodd" clip-rule="evenodd" d="M146.68 122.324V133.118C146.685 133.734 146.771 134.348 146.934 134.943C147.098 135.546 147.375 136.114 147.748 136.614C148.137 137.13 148.636 137.55 149.208 137.843C150.643 138.471 152.275 138.471 153.709 137.843C154.282 137.55 154.781 137.13 155.169 136.614C155.542 136.113 155.819 135.546 155.984 134.943C156.146 134.348 156.231 133.734 156.236 133.118V122.372H160.545V133.536C160.545 136.4 159.595 140.173 155.064 141.894C152.753 142.746 150.216 142.752 147.901 141.911C144.208 140.518 142.375 137.731 142.375 133.552V122.324H146.679H146.68ZM134.677 124.899C135.611 125.842 136.359 126.953 136.882 128.175C137.424 129.448 137.698 130.82 137.688 132.204C137.703 134.953 136.615 137.595 134.672 139.528C133.721 140.464 132.602 141.21 131.376 141.727C128.761 142.806 125.827 142.806 123.213 141.727C121.986 141.21 120.867 140.464 119.917 139.528C117.975 137.594 116.889 134.952 116.906 132.204C116.896 130.82 117.171 129.448 117.712 128.175C119.355 124.328 123.136 121.823 127.298 121.823C130.065 121.823 132.721 122.93 134.677 124.899H134.677ZM181.348 122.358V126.08L171.035 138.177H181.904V142.064H165.529V138.302L175.766 126.244H165.886V122.357H181.348V122.358ZM201.853 122.358V126.08L191.541 138.177H202.41V142.064H186.035V138.302L196.272 126.244H186.392V122.357H201.853V122.358ZM99.0399 115.395V123.69C101.336 121.829 104.884 121.333 107.776 122.536C110.782 123.787 112.505 126.559 112.507 130.142V142.059H108.172V131.577C108.172 129.114 106.929 126.236 103.428 126.236C99.6134 126.236 99.0427 129.582 99.0427 131.577V142.062H94.7021V115.395H99.0399ZM132.694 134.728C133.248 133.09 133.248 131.312 132.694 129.674C132.446 128.952 132.055 128.289 131.545 127.724C131.033 127.179 130.414 126.747 129.728 126.456C128.167 125.832 126.427 125.832 124.867 126.456C124.18 126.747 123.561 127.179 123.05 127.724C122.537 128.288 122.145 128.952 121.897 129.674C121.343 131.312 121.343 133.09 121.897 134.728C122.145 135.45 122.538 136.114 123.05 136.678C123.561 137.224 124.18 137.656 124.867 137.946C126.427 138.569 128.167 138.569 129.728 137.946C130.414 137.655 131.033 137.224 131.545 136.678C132.055 136.113 132.447 135.45 132.694 134.728Z" fill="#060606"/>
</svg>
