<?xml version="1.0" standalone="no"?>
<!DOCTYPE svg PUBLIC "-//W3C//DTD SVG 20010904//EN"
 "http://www.w3.org/TR/2001/REC-SVG-20010904/DTD/svg10.dtd">
<svg version="1.0" xmlns="http://www.w3.org/2000/svg"
 width="256.000000pt" height="256.000000pt" viewBox="0 0 256.000000 256.000000"
 preserveAspectRatio="xMidYMid meet">

<g transform="translate(0.000000,256.000000) scale(0.100000,-0.100000)"
fill="#000000" stroke="none">
<path d="M1074 2494 c-516 -86 -925 -499 -1009 -1017 -109 -670 349 -1303
1018 -1412 670 -109 1303 349 1412 1018 63 386 -68 791 -344 1068 -278 277
-690 408 -1077 343z m97 -548 c90 -19 162 -58 231 -124 l58 -55 0 86 0 87 210
0 210 0 0 -675 0 -675 -210 0 -210 0 0 90 0 90 -41 -45 c-143 -155 -395 -197
-607 -100 -169 78 -294 248 -338 462 -23 111 -15 331 16 428 102 322 377 495
681 431z"/>
<path d="M1067 1576 c-123 -44 -195 -176 -184 -337 9 -131 68 -226 172 -275
56 -27 148 -32 206 -12 134 45 207 174 196 342 -6 92 -24 143 -73 203 -50 61
-121 93 -208 93 -39 -1 -88 -7 -109 -14z"/>
</g>
</svg>
